# xmcd
#
# Track frame offsets: 
#        150
#        13196
#        25296
#        38594
#        50080
#        60555
#        75199
#        88309
#        102098
#        111237
#        124627
#        136172
#        150162
#        163027
#        177594
#        191991
#        207891
#        221062
#        236194
#        249355
#        257807
#        271919
#        283537
#        296403
#        311261
#        326798
#        339922
#
# Disc length: 4751 seconds
#
# Revision: 0
# Processed by: cddbd v1.5.2PL0 Copyright (c) Steve Scherf et al.
# Submitted via: ExactAudioCopy v0.99pb4
#
DISCID=81128d1b
DTITLE=Jimmy Hughes - Something Extra Special: The Complete Volt Recor
DTITLE=dings 1968-1971
DYEAR=2010
DGENRE=Soul
TTITLE0=I Like Everything About You
TTITLE1=Let 'Em Down Baby
TTITLE2=I'm So Glad
TTITLE3=Lay it On The Line
TTITLE4=Sweet Things You Do
TTITLE5=Chains Of Love
TTITLE6=I'm Not Ashamed To Beg And Plead
TTITLE7=It's All Up To You
TTITLE8=Lock Me Up  
TTITLE9=What Side Of the Door
TTITLE10=Peeped Around Yonder's Bend
TTITLE11=(Just Ain't As Strong As I Used To Be) You Done Fed Me Sumpin
TTITLE11='
TTITLE12=Did You Forget
TTITLE13=No Easy Way
TTITLE14=Don't You Know I'm All Alone
TTITLE15=I Was Closest At Hand
TTITLE16=I Want You So Bad
TTITLE17=I Worry About You
TTITLE18=It Just Ain't Enough
TTITLE19=Look What I Got
TTITLE20=Never Grow Old
TTITLE21=Your Love Made A U Turn
TTITLE22=Tell Him Tonight
TTITLE23=Too Old To Play
TTITLE24=Leave Us Alone
TTITLE25=You Got The Power
TTITLE26=Your Love Is Important To Me
EXTD=
EXTT0=
EXTT1=
EXTT2=
EXTT3=
EXTT4=
EXTT5=
EXTT6=
EXTT7=
EXTT8=
EXTT9=
EXTT10=
EXTT11=
EXTT12=
EXTT13=
EXTT14=
EXTT15=
EXTT16=
EXTT17=
EXTT18=
EXTT19=
EXTT20=
EXTT21=
EXTT22=
EXTT23=
EXTT24=
EXTT25=
EXTT26=
PLAYORDER=
